<?xml version="1.0" standalone="no"?>
<!DOCTYPE svg PUBLIC "-//W3C//DTD SVG 20010904//EN"
 "http://www.w3.org/TR/2001/REC-SVG-20010904/DTD/svg10.dtd">
<svg version="1.0" xmlns="http://www.w3.org/2000/svg"
 width="500.000000pt" height="500.000000pt" viewBox="0 0 500.000000 500.000000"
 preserveAspectRatio="xMidYMid meet">
<metadata>
Created by potrace 1.14, written by Peter Selinger 2001-2017
</metadata>
<g transform="translate(0.000000,500.000000) scale(0.100000,-0.100000)"
fill="#000000" stroke="none">
<path d="M0 2500 l0 -2500 2500 0 2500 0 0 2500 0 2500 -2500 0 -2500 0 0
-2500z m2553 1843 c4 -3 3 -11 -4 -19 -8 -10 -34 -14 -85 -14 -156 0 -407 -53
-564 -118 -233 -98 -400 -214 -626 -434 -81 -80 -145 -134 -149 -128 -14 22
165 221 290 321 105 84 177 132 331 217 160 89 349 149 557 177 92 12 229 11
250 -2z m260 -164 c112 -17 274 -65 381 -114 28 -13 77 -35 109 -49 31 -13 57
-30 57 -35 0 -7 58 -11 173 -11 190 0 219 -7 289 -68 19 -18 38 -29 41 -26 3
3 4 -3 4 -13 -1 -10 4 -17 11 -15 8 1 11 -2 7 -8 -3 -5 -1 -10 6 -10 7 0 10
-3 6 -6 -3 -4 3 -25 14 -47 20 -39 32 -128 30 -227 -4 -257 -21 -631 -30 -652
-11 -30 -55 -48 -74 -29 -6 6 -18 11 -27 11 -9 0 -27 12 -41 26 l-24 26 3 279
c2 163 -2 312 -8 358 -15 108 -10 123 50 146 30 11 51 26 54 38 3 13 10 18 21
14 14 -6 14 -4 0 24 -27 52 -107 126 -150 139 -45 14 -345 24 -345 12 0 -4
-22 -16 -50 -26 -27 -10 -62 -27 -77 -39 -15 -12 -35 -23 -45 -24 -41 -6 23
56 97 95 42 22 37 26 -35 22 -26 -1 -52 10 -100 41 -72 47 -179 94 -237 105
-21 4 -72 15 -113 26 -41 10 -121 21 -177 25 -57 3 -103 10 -103 15 0 12 198
10 283 -3z m-688 -89 c-29 -13 -99 -43 -105 -45 -40 -12 -205 -102 -279 -152
-91 -62 -240 -187 -269 -225 -15 -20 -42 -24 -42 -7 0 16 122 134 195 190 120
91 257 164 405 215 91 31 138 43 95 24z m578 -99 c16 -1 26 -5 23 -9 -3 -5 7
-9 22 -10 43 -1 193 -41 219 -57 34 -23 29 -38 -9 -29 -18 4 -40 7 -48 7 -8 0
-42 6 -75 13 -90 20 -108 19 -100 -8 4 -13 17 -39 30 -58 31 -48 37 -82 24
-133 -11 -47 -52 -107 -64 -95 -4 4 -1 22 8 40 29 64 30 93 4 135 -35 54 -135
104 -197 97 -25 -2 -75 -6 -111 -8 -36 -2 -80 -11 -97 -20 -17 -9 -35 -15 -39
-15 -4 1 -15 0 -23 -4 -19 -7 -69 -18 -72 -15 -2 1 -14 -5 -28 -12 -14 -8 -27
-15 -30 -15 -14 -2 -137 -69 -165 -91 -17 -13 -34 -22 -36 -19 -3 2 -27 -13
-53 -35 -27 -22 -52 -40 -56 -40 -19 0 -22 24 -5 37 14 9 15 13 4 13 -8 0 -20
-9 -26 -20 -7 -10 -22 -24 -33 -30 -18 -10 -20 -8 -20 20 0 21 4 29 12 24 7
-4 8 -3 4 4 -15 25 88 122 130 122 8 0 14 7 14 15 0 9 21 26 48 38 26 13 63
33 82 45 35 22 184 74 250 87 19 4 52 7 73 7 20 0 37 3 37 8 0 12 133 17 303
11z m463 -197 c44 -29 51 -65 46 -226 l-5 -148 91 0 90 0 3 169 c2 93 7 172
10 175 3 3 21 8 39 10 27 3 40 -3 69 -31 l36 -35 -2 -375 c-2 -207 -5 -385 -9
-396 -6 -18 -12 -19 -63 -14 -89 10 -90 10 -85 75 2 31 5 105 8 163 l4 107
-30 6 c-17 3 -59 6 -94 6 -52 0 -65 -3 -74 -19 -6 -11 -10 -87 -10 -176 0
-127 -3 -157 -15 -161 -8 -3 -20 -2 -27 2 -7 5 -26 7 -43 5 l-30 -2 1 418 c2
481 1 456 14 448 5 -3 18 -1 27 4 23 13 20 14 49 -5z m-1096 -252 c24 -42 54
-103 66 -136 12 -32 27 -63 33 -69 6 -6 11 -19 11 -29 0 -10 3 -18 8 -18 4 0
18 -24 31 -52 13 -29 31 -62 41 -73 18 -20 22 -28 75 -128 27 -52 45 -71 45
-48 0 5 22 56 49 113 26 57 52 115 56 128 18 59 139 356 149 368 9 9 19 10 42
2 33 -12 45 -34 98 -187 19 -56 44 -115 55 -130 25 -35 111 -266 111 -298 0
-14 -9 -34 -20 -45 -29 -29 -59 -13 -98 51 -18 29 -41 57 -52 61 -11 4 -63 5
-115 1 -108 -7 -101 -1 -154 -125 -40 -92 -59 -112 -111 -113 -21 0 -36 -3
-33 -7 10 -17 -14 -6 -44 20 -17 15 -46 54 -63 87 -55 102 -63 107 -177 112
-54 2 -124 1 -157 -4 l-58 -8 -42 -91 c-55 -123 -62 -132 -77 -116 -7 6 -21
12 -31 12 -46 0 -37 66 29 210 19 41 44 102 55 135 11 33 24 65 28 70 5 6 38
84 74 175 37 91 74 175 82 187 25 40 46 27 94 -55z m-675 38 c63 -19 140 -106
165 -187 11 -36 20 -75 20 -87 0 -44 -31 -124 -65 -169 -19 -25 -35 -54 -35
-64 0 -18 52 -112 166 -303 67 -111 144 -268 144 -292 0 -8 -11 -24 -25 -36
-14 -12 -25 -28 -25 -36 0 -7 -6 -19 -14 -25 -12 -10 -24 5 -72 86 -31 54 -98
167 -148 251 -50 84 -109 182 -130 219 -43 72 -65 86 -155 97 -40 5 -56 4 -62
-6 -5 -7 -9 -98 -10 -203 0 -104 -4 -201 -8 -214 -6 -21 -8 -22 -20 -7 -7 9
-22 16 -33 16 -10 0 -31 11 -46 25 l-27 25 0 418 c0 229 3 429 8 445 4 15 17
37 28 48 18 18 30 20 162 16 78 -3 160 -10 182 -17z m2648 -157 c31 -43 152
-295 159 -333 2 -8 6 -17 9 -20 6 -5 14 -40 44 -185 43 -202 60 -499 36 -607
-6 -24 -17 -84 -25 -132 -18 -101 -45 -200 -53 -192 -4 3 1 34 10 68 30 114
37 191 37 420 0 256 -9 339 -51 486 -40 142 -79 238 -154 387 -53 105 -69 155
-50 155 2 0 19 -21 38 -47z m-19 -197 c86 -177 155 -436 138 -516 -7 -32 -9
-28 -20 42 -19 127 -70 295 -133 439 -32 76 -59 140 -59 144 0 23 34 -28 74
-109z m-3138 -242 c-11 -11 -14 -27 -10 -57 3 -23 -1 -96 -10 -162 -16 -123
-23 -419 -11 -466 4 -15 2 -30 -4 -33 -6 -4 -7 -17 -1 -34 4 -15 16 -52 25
-82 9 -30 34 -104 56 -163 27 -75 37 -115 33 -134 -6 -24 -10 -20 -44 48 -21
41 -47 101 -59 134 -21 60 -26 84 -57 240 -22 107 -29 376 -14 479 7 45 14 95
15 111 7 60 48 181 69 199 21 18 21 18 24 -23 2 -27 -2 -46 -12 -57z m2634
-112 c36 -5 72 -12 82 -16 25 -11 101 -106 103 -130 2 -11 8 -39 14 -61 25
-91 8 -145 -73 -232 -40 -42 -59 -55 -89 -58 -36 -5 -37 -4 -31 23 4 15 24 62
45 104 54 108 49 185 -15 236 -15 11 -27 24 -26 29 2 14 -61 23 -210 29 -191
9 -514 -19 -705 -61 -36 -8 -119 -33 -178 -55 -50 -19 -64 -20 -109 -11 -28 6
-65 18 -82 26 -32 14 -244 47 -283 43 -23 -2 -23 -5 -23 -135 l0 -133 89 0
c115 0 180 -21 226 -72 29 -31 35 -46 35 -82 0 -62 -16 -99 -53 -122 -35 -21
-166 -55 -209 -54 -15 0 -29 -4 -33 -9 -3 -6 -12 -8 -20 -5 -8 4 -38 1 -67 -6
-29 -6 -64 -13 -77 -16 -18 -4 -21 -8 -12 -17 6 -6 11 -30 11 -53 0 -60 15
-68 136 -75 124 -7 144 -18 144 -85 0 -24 -6 -46 -12 -51 -7 -4 -60 -10 -117
-13 -130 -6 -138 -14 -143 -135 l-3 -80 123 0 c125 0 141 -5 142 -42 0 -7 7
-13 15 -13 8 0 15 4 15 10 0 5 20 51 44 102 24 51 47 104 51 118 4 14 21 51
36 82 16 32 53 129 83 215 74 221 95 256 133 232 35 -21 65 -77 98 -181 18
-57 65 -168 105 -247 40 -80 83 -174 97 -210 14 -36 28 -70 33 -76 20 -26 42
-120 37 -162 -6 -56 -29 -88 -96 -133 -52 -36 -133 -58 -335 -90 -51 -8 -78
-19 -105 -41 -19 -16 -40 -29 -45 -29 -15 0 -86 -83 -93 -108 -7 -28 24 -58
70 -68 15 -4 27 -10 27 -14 0 -4 15 -11 34 -14 19 -4 36 -12 39 -19 5 -17 282
-22 362 -7 138 26 387 105 440 139 22 14 64 38 94 54 89 45 134 82 296 243
139 138 172 180 163 204 -4 11 -12 19 -17 15 -6 -3 -18 6 -27 20 -18 28 -16
107 5 158 l11 28 27 -32 c42 -50 111 -89 155 -89 46 0 112 31 133 63 8 12 15
36 16 52 6 86 -35 132 -141 160 -124 32 -171 73 -206 179 -35 103 2 216 105
326 l47 50 76 0 c42 0 79 -4 83 -9 3 -5 28 -17 55 -26 57 -19 79 -45 104 -122
33 -100 20 -152 -33 -130 -39 17 -81 49 -81 63 0 7 -16 26 -35 43 -42 37 -85
40 -132 11 -42 -25 -63 -68 -63 -129 0 -72 24 -94 130 -120 106 -27 127 -37
167 -79 48 -50 64 -89 70 -163 4 -52 1 -75 -15 -110 -39 -87 -134 -173 -202
-183 -23 -3 -44 -16 -63 -38 -34 -40 -136 -173 -159 -208 -23 -36 -94 -108
-158 -161 -66 -55 -284 -199 -302 -199 -7 0 -47 -18 -89 -40 -92 -48 -224 -92
-362 -122 -174 -37 -554 -29 -612 13 -5 3 -25 10 -43 14 -68 14 -22 14 99 0
298 -35 577 -6 826 85 118 44 297 145 403 228 117 92 370 370 370 407 0 7 -20
15 -45 18 -35 5 -50 3 -66 -11 -26 -21 -103 -121 -112 -144 -3 -10 -11 -18
-17 -18 -6 0 -8 -5 -4 -12 4 -6 3 -8 -3 -5 -5 3 -41 -26 -79 -64 -82 -83 -197
-180 -218 -183 -9 -1 -28 -13 -43 -27 -35 -30 -52 -38 -193 -92 -107 -41 -164
-57 -315 -87 -33 -7 -136 -13 -230 -13 -160 -1 -175 0 -257 27 -110 35 -168
82 -192 155 -9 27 -16 57 -16 65 0 32 50 127 88 166 42 44 135 102 100 63 -10
-11 -18 -24 -18 -30 0 -5 -9 -18 -20 -28 -11 -10 -20 -23 -20 -28 0 -6 -7 -19
-17 -29 -9 -10 -13 -21 -9 -25 15 -15 71 -10 115 10 25 11 49 21 54 22 4 2 8
4 10 5 1 1 11 4 22 6 71 13 85 17 85 24 0 4 20 17 45 30 25 13 69 50 97 82 29
32 59 58 67 58 19 0 40 30 41 58 0 30 -72 171 -100 197 -19 17 -36 20 -129 20
-63 0 -115 -5 -127 -13 -14 -7 -35 -45 -59 -109 -20 -54 -41 -110 -47 -125 -8
-22 -17 -28 -42 -28 -20 0 -37 7 -45 19 -11 15 -19 17 -38 10 -12 -4 -80 -11
-151 -13 -70 -3 -135 -8 -145 -11 -9 -4 -23 0 -33 9 -9 9 -24 14 -34 11 -12
-4 -19 1 -24 17 -10 41 -7 670 5 711 12 43 27 39 49 -13 7 -17 16 -30 20 -30
8 0 26 257 21 293 -1 9 1 17 5 17 4 0 16 -8 27 -17 19 -18 19 -15 16 174 -5
240 -11 229 134 225 115 -3 194 -15 285 -44 73 -23 130 -19 214 17 57 23 412
69 618 79 100 5 337 -2 410 -12z m666 -394 c3 -92 1 -145 -4 -133 -14 30 -23
310 -10 297 6 -6 12 -78 14 -164z m-763 -97 c6 -6 19 -11 29 -11 11 0 20 -10
24 -27 3 -16 7 -33 9 -39 2 -6 -8 -25 -22 -42 -24 -31 -27 -32 -106 -33 -109
0 -177 -12 -193 -34 -10 -13 -11 -94 -7 -374 7 -400 6 -404 -53 -398 -19 2
-40 9 -46 15 -7 7 -17 12 -23 12 -28 0 -31 53 -28 397 l4 351 -23 16 c-18 13
-37 15 -95 10 -84 -8 -130 0 -114 20 7 9 6 18 -4 33 -13 19 -13 23 0 37 8 8
15 21 15 28 0 16 35 40 70 50 44 11 550 2 563 -11z m-2118 -77 c90 -9 183 -97
203 -191 13 -62 0 -135 -33 -183 -14 -20 -25 -41 -25 -46 0 -6 19 -37 42 -70
55 -79 68 -113 68 -181 0 -84 -42 -168 -108 -216 -50 -37 -180 -97 -210 -97
-20 0 44 -66 123 -127 33 -26 67 -54 76 -62 17 -16 222 -139 359 -215 56 -30
76 -47 78 -64 3 -22 -9 -17 -155 59 -233 121 -321 181 -474 325 l-76 72 -74
-3 c-41 -1 -111 -6 -156 -10 l-83 -7 0 48 c0 27 4 54 8 61 4 6 31 13 60 14 28
1 57 6 63 10 8 5 11 37 10 95 -1 83 -11 328 -15 384 -1 14 2 43 6 65 5 22 12
99 17 170 5 72 13 141 19 155 10 25 10 26 118 23 60 -2 132 -6 159 -9z m2194
-514 c1 -14 8 -36 17 -48 21 -31 21 -180 -1 -222 -18 -34 -17 -34 -48 -18 -12
6 -29 14 -37 18 -38 17 -40 89 -10 253 13 67 27 85 37 47 7 -25 23 -16 24 13
0 21 1 21 9 2 5 -11 9 -31 9 -45z m-1402 -996 c-3 -3 -12 -4 -19 -1 -8 3 -5 6
6 6 11 1 17 -2 13 -5z"/>
<path d="M2635 3250 c-14 -27 -25 -52 -25 -55 0 -3 25 -5 56 -5 53 0 55 1 48
23 -15 50 -34 87 -43 87 -6 0 -22 -22 -36 -50z"/>
<path d="M1970 3230 c-16 -33 -30 -65 -30 -71 0 -12 143 -10 155 3 4 3 -2 23
-12 45 -52 104 -70 108 -113 23z"/>
<path d="M1154 3417 c-2 -7 -3 -62 -2 -123 l3 -109 75 -3 c97 -4 139 9 168 51
43 64 20 145 -50 177 -52 24 -185 28 -194 7z"/>
<path d="M1890 2293 l0 -90 58 8 c31 5 79 11 107 14 50 6 78 23 97 59 14 26
18 77 6 70 -5 -3 -15 -1 -22 5 -8 7 -66 14 -130 18 l-116 6 0 -90z"/>
<path d="M2451 1990 c-6 -17 -16 -45 -22 -62 -6 -18 -17 -45 -25 -60 l-15 -28
75 0 c42 0 76 2 76 4 0 12 -63 167 -70 171 -4 3 -13 -9 -19 -25z"/>
<path d="M1156 2171 c-10 -15 -19 -187 -12 -215 6 -24 11 -26 57 -26 83 0 138
19 160 54 24 39 24 67 -1 115 -13 27 -33 46 -63 60 -44 21 -131 29 -141 12z"/>
<path d="M1168 1793 c-10 -2 -20 -14 -23 -26 -10 -37 -10 -159 -1 -236 7 -56
6 -72 -2 -67 -7 4 -12 3 -12 -2 0 -18 95 -12 159 10 73 24 106 54 121 109 27
98 -28 186 -128 208 -54 11 -83 12 -114 4z"/>
<path d="M1068 1443 c12 -2 30 -2 40 0 9 3 -1 5 -23 4 -22 0 -30 -2 -17 -4z"/>
</g>
</svg>
